<svg height="322" viewBox="0 0 262 322" width="262" xmlns="http://www.w3.org/2000/svg"><path d="m179 353.358852v-211.858852c0-11.874122 9.625878-21.5 21.5-21.5s21.5 9.625878 21.5 21.5v210.430704l69.091204-98.672466c6.810717-9.726711 20.216951-12.090592 29.943663-5.279875 9.726711 6.810717 12.090592 20.216951 5.279875 29.943662l-106.611325 152.256752c-3.541358 7.012495-10.810818 11.821223-19.203417 11.821223-.973208 0-1.931314-.064662-2.870256-.189924-6.035769-.58758-11.78748-3.711246-15.53854-9.068314l-108.4059462-154.819737c-6.8107166-9.726711-4.4468358-23.132945 5.2798756-29.943662s23.1329456-4.446836 29.9436626 5.279875z" transform="translate(-69 -120)"/></svg>