<svg xmlns="http://www.w3.org/2000/svg" width="1005" height="646" viewBox="0 0 1005 646">
  <g fill="none" fill-rule="evenodd">
    <g transform="translate(0 1)">
      <path fill="#A2A1A1" d="M51.9403084,87.6883389 L53.2659774,86.0402496 C75.094662,58.9316778 101.318986,37.9559959 131.181424,23.6825437 C161.043862,9.40909161 193.786889,2.12753345 228.483533,2.12753345 L230.596629,2.12753345 L230.596629,232.94993 L51.9403084,87.6883389 Z"/>
      <path fill="#FFF" fill-rule="nonzero" d="M228.483533,4.24507849 L228.483533,228.495095 L54.9106043,87.3687094 C98.3885597,33.4312416 159.409202,4.24507849 228.483533,4.24507849 Z M232.719693,0 L228.483533,0 C193.467931,0 160.475718,7.32151184 130.26442,21.7647671 C100.053121,36.2080224 73.6493838,57.3834727 51.6213505,84.6918129 L48.9600451,87.9879915 L52.2393315,90.6548996 L225.81226,231.791274 L232.719693,237.414754 L232.719693,0 Z"/>
      <path fill="#6F6F6E" d="M19.4365,313.296781 C-12.1802067,234.727869 0.149511538,151.893902 53.2659774,86.0402496 L54.6016138,84.3821719 L232.610051,229.114377 L20.2338949,315.264499 L19.4365,313.296781 Z"/>
      <path fill="#FFF" fill-rule="nonzero" d="M54.9106043,87.3687094 L228.483533,228.495095 L21.4000849,312.497707 C-9.96743589,234.418228 2.13303128,152.822825 54.9106043,87.3687094 Z M54.2826559,81.3756575 L51.6213505,84.7018013 C24.9185897,117.863356 8.3028741,154.820509 2.39218461,194.574421 C-3.51850487,234.328332 1.55492,274.481781 17.4729151,314.085866 L19.0577374,318.031292 L22.9948746,316.433145 L230.068355,232.430533 L236.726602,229.733659 L231.154806,225.198917 L57.5818771,84.0725309 L54.2826559,81.3956343 L54.2826559,81.3756575 Z"/>
      <path fill="#1D1D1B" d="M228.483533,454.872645 C182.065184,454.872645 138.248336,441.807792 101.76752,417.106429 C65.2867051,392.405067 36.8795128,356.506685 19.4365,313.296781 L18.6490726,311.299097 L226.360469,227.066751 L226.360469,2.12753345 L228.483533,2.12753345 C288.337395,2.18313772 345.717607,26.0640727 388.000489,68.5165187 C430.28337,110.968965 454.005118,168.515227 453.946933,228.495095 C454.062592,353.396347 353.122376,454.745828 228.483533,454.872645 Z"/>
      <path fill="#FFF" fill-rule="nonzero" d="M228.483533,4.24507849 C351.850487,4.24507849 451.823869,104.648676 451.823869,228.495095 C451.823869,352.341514 351.850487,452.745112 228.483533,452.745112 C134.789636,452.745112 56.5253289,399.806486 21.4000849,312.497707 L228.483533,228.495095 L228.483533,4.24507849 Z M228.483533,2.26884585e-14 L224.267308,2.26884585e-14 L224.267308,225.628419 L19.8351974,308.532304 L15.9080277,310.130452 L17.49285,314.055901 C35.0455046,357.665342 63.7816223,393.90333 100.60133,418.834426 C137.421039,443.765522 181.656519,456.960225 228.503468,456.960225 C288.916536,456.917868 346.83684,432.820189 389.515129,389.971496 C432.193419,347.122804 456.131442,289.035321 456.060029,228.495095 C456.20039,167.927579 432.282759,109.793864 389.586077,66.9248395 C346.889395,24.055815 288.923965,-0.0240475238 228.483533,2.26884585e-14 Z"/>
    </g>
    <text fill="#F4E84A" font-family="Rubik-Black, Rubik" font-size="41.112" font-weight="700">
      <tspan x="317.733" y="292.552">69%</tspan>
    </text>
    <text fill="#F4E84A" font-family="Rubik-Black, Rubik" font-size="41.112" font-weight="700">
      <tspan x="42.022" y="237.082">17%</tspan>
    </text>
    <text fill="#F4E84A" font-family="Rubik-Black, Rubik" font-size="41.112" font-weight="700">
      <tspan x="129.624" y="106.053">14%</tspan>
    </text>
    <g transform="translate(548)">
      <path fill="#A2A1A1" d="M19.2202482,312.768171 C-3.21932748,257.234706 -2.6766233,195.061199 20.7289476,139.92791 C44.1345185,84.7946217 88.4852578,41.2188097 144.022513,18.7886167 C170.859445,7.75779438 199.621131,2.17079705 228.636076,2.35231487 L230.739205,2.35231487 L230.739205,229.609853 L20.0076757,314.731756 L19.2202482,312.768171 Z"/>
      <path fill="#FFF" fill-rule="nonzero" d="M228.636076,4.46541128 L228.636076,228.174542 L21.1838331,311.980743 C-25.1049392,197.43497 30.2442323,67.0509412 144.780038,20.762169 C171.375996,9.82690454 199.880325,4.28731368 228.636076,4.46541128 Z M232.872237,0.229251025 L228.636076,0.229251025 C199.350366,0.0448098828 170.320359,5.68614536 143.235086,16.8250318 C87.1392822,39.420406 42.3348284,83.4007394 18.7020495,139.067443 C-4.93072946,194.734146 -5.45074999,257.515022 17.2566634,313.565566 L18.8414857,317.492735 L22.7686554,315.897946 L230.220899,232.101712 L232.872237,231.035197 L232.872237,0.229251025 Z"/>
      <path fill="#6F6F6E" d="M227.898486,454.136314 C135.839248,454.136314 53.92686,398.647598 19.2202482,312.768171 L18.4228534,310.774684 L230.06142,225.283986 L289.138412,445.723798 L287.095088,446.272007 C267.791181,451.468264 247.889517,454.112213 227.898486,454.136314 Z"/>
      <path fill="#FFF" fill-rule="nonzero" d="M228.636076,228.174542 L286.556846,444.258585 C267.430583,449.398042 247.713194,452.008485 227.908453,452.023218 C138.679967,452.023218 56.189468,398.567859 21.1938005,311.970776 L228.646044,228.174542 L228.636076,228.174542 Z M231.49673,222.443267 L227.051254,224.267308 L19.5990108,308.043606 L15.6618736,309.628429 L17.2566634,313.565566 C51.6813873,399.732021 135.109911,456.2485 227.898486,456.259378 C248.073664,456.242962 268.15967,453.582253 287.643297,448.345234 L291.739913,447.248816 L290.643495,443.1522 L232.732692,227.078124 L231.486763,222.443267 L231.49673,222.443267 Z"/>
      <path fill="#1D1D1B" d="M226.52298,228.453631 L226.52298,2.35231135 L228.636076,2.35231487 C288.535679,2.34173978 345.985714,26.1286695 388.345803,68.4794119 C430.705892,110.830154 454.505498,168.274939 454.508141,228.174542 C454.508141,279.566642 438.679853,327.340562 408.747643,366.343139 C378.815433,405.345715 336.742886,432.995383 287.095088,446.301909 L285.101601,446.850118 L226.52298,228.453631 Z"/>
      <path fill="#FFF" fill-rule="nonzero" d="M228.636076,4.46541128 C352.232281,4.46541128 452.385077,104.618207 452.385077,228.174542 C452.385077,331.915615 386.809316,417.396345 286.556846,444.258585 L228.646044,228.174542 L228.646044,4.46541128 L228.636076,4.46541128 Z M228.646044,0.229251025 L224.409883,0.229163619 L224.409883,228.732719 L224.549428,229.27096 L282.46023,445.355003 L283.556648,449.441652 L287.653264,448.345234 C337.759564,434.929065 380.220841,407.020245 410.442107,367.609003 C440.663373,328.197762 456.621237,280.084949 456.621237,228.174542 C456.663601,167.699806 432.656134,109.690367 389.890288,66.9319992 C347.124442,24.1736317 289.110805,0.176311187 228.636076,0.229251025 L228.646044,0.229251025 Z"/>
    </g>
    <text fill="#F4E84A" font-family="Rubik-Black, Rubik" font-size="41.112" font-weight="700">
      <tspan x="843.064" y="237.248">46%</tspan>
    </text>
    <text fill="#F4E84A" font-family="Rubik-Black, Rubik" font-size="41.112" font-weight="700">
      <tspan x="661.403" y="381.66">23%</tspan>
    </text>
    <text fill="#F4E84A" font-family="Rubik-Black, Rubik" font-size="41.112" font-weight="700">
      <tspan x="616.761" y="189.336">31%</tspan>
    </text>
    <rect width="27.761" height="307.012" x="763" y="364" fill="#0048FF" rx="9.468" transform="rotate(90 776.88 517.506)"/>
    <rect width="27.761" height="307.012" x="215" y="364" fill="#FA3F47" rx="9.468" transform="rotate(90 228.88 517.506)"/>
    <g font-size="28" transform="translate(629 535)">
      <text fill="#1D1D1B" font-family="Roboto-Medium, Roboto" font-weight="400">
        <tspan x="0" y="68">een niet-westerse </tspan> <tspan x="0" y="105">migratieachtergrond</tspan>
      </text>
      <text fill="#000" font-family="Roboto-Medium, Roboto" font-weight="400">
        <tspan x="197" y="29">met</tspan>
      </text>
      <text fill="#1D1D1B" font-family="Rubik-Bold, Rubik" font-weight="bold">
        <tspan x="0" y="30">Nederlanders</tspan>
      </text>
    </g>
    <g font-size="28" transform="translate(75 535)">
      <text fill="#000" font-family="Roboto-Medium, Roboto" font-weight="400">
        <tspan x="197" y="29">zonder</tspan>
      </text>
      <text fill="#000" font-family="Roboto-Medium, Roboto" font-weight="400">
        <tspan x="1" y="66">migratieachtergrond</tspan>
      </text>
      <text fill="#1D1D1B" font-family="Rubik-Bold, Rubik" font-weight="bold">
        <tspan x="0" y="30">Nederlanders</tspan>
      </text>
    </g>
    <text fill="#000" font-family="Roboto-Light, Roboto" font-size="30" font-weight="300">
      <tspan x="657.549" y="490">386 respondenten</tspan>
    </text>
    <text fill="#000" font-family="Roboto-Light, Roboto" font-size="30" font-weight="300">
      <tspan x="108.549" y="490">235 respondenten</tspan>
    </text>
  </g>
</svg>
