<svg height="784" viewBox="0 0 699 784" width="699" xmlns="http://www.w3.org/2000/svg"><g fill="none" fill-rule="evenodd"><g transform="translate(-2 -8)"><path d="m106.05 375.417h284.19279v145.86117h-284.19279z" fill="#6f6f6e"/><path d="m106.05 520.7055h284.19279v50.490405h-284.19279z" fill="#a2a1a1"/><path d="m106.05 10.605h284.19279v364.652925h-284.19279z" fill="#1d1d1b"/><path d="m414.6555 10.605h284.19279v196.351575h-284.19279z" fill="#1d1d1b"/><path d="m414.6555 206.7975h284.19279v157.08126h-284.19279z" fill="#6f6f6e"/><path d="m414.6555 363.7515h284.19279v207.571665h-284.19279z" fill="#a2a1a1"/><path d="m699.35733 598.07958h-619.003245v-584.29308h-6.119085v-3.1815h9.300585v584.29308h615.821745z" fill="#1d1d1b"/><g font-weight="400"><text fill="#1d1d1b" font-family="Roboto-Medium, Roboto" font-size="25.452"><tspan x="22.2705" y="579.5205">0%</tspan></text><text fill="#1d1d1b" font-family="Roboto-Medium, Roboto" font-size="25.452"><tspan x="11.6655" y="469.2285">20%</tspan></text><text fill="#1d1d1b" font-family="Roboto-Medium, Roboto" font-size="25.452"><tspan x="11.6655" y="358.9365">40%</tspan></text><text fill="#fff33d" font-family="Rubik-Medium, Rubik" font-size="31.815"><tspan x="222.705" y="556.008">9%</tspan></text><text fill="#fff33d" font-family="Rubik-Medium, Rubik" font-size="31.815"><tspan x="215.2815" y="457.3815">26%</tspan></text><text fill="#fff33d" font-family="Rubik-Medium, Rubik" font-size="31.815"><tspan x="215.2815" y="201.801">65%</tspan></text><text fill="#fff33d" font-family="Rubik-Medium, Rubik" font-size="31.815"><tspan x="523.887" y="477.531">37%</tspan></text><text fill="#fff33d" font-family="Rubik-Medium, Rubik" font-size="31.815"><tspan x="523.887" y="295.125">28%</tspan></text><text fill="#fff33d" font-family="Rubik-Medium, Rubik" font-size="31.815"><tspan x="523.887" y="118.0215">35%</tspan></text><text fill="#1d1d1b" font-family="Roboto-Medium, Roboto" font-size="25.452"><tspan x="11.6655" y="247.584">60%</tspan></text><text fill="#1d1d1b" font-family="Roboto-Medium, Roboto" font-size="25.452"><tspan x="11.6655" y="137.292">80%</tspan></text><text fill="#1d1d1b" font-family="Roboto-Medium, Roboto" font-size="25.452"><tspan x="0" y="27">100%</tspan></text></g><path d="m74.235 572.13975h7.709835" stroke="#1d1d1b" stroke-width="3.1815"/><path d="m74.235 459.72675h7.709835" stroke="#1d1d1b" stroke-width="3.1815"/><path d="m74.235 347.31375h7.709835" stroke="#1d1d1b" stroke-width="3.1815"/><path d="m74.235 235.96125h7.709835" stroke="#1d1d1b" stroke-width="3.1815"/><path d="m74.235 123.54825h7.709835" stroke="#1d1d1b" stroke-width="3.1815"/></g><g transform="translate(417 596)"><rect fill="#0048ff" height="284" rx="9.468235" transform="matrix(0 1 -1 0 200 -84)" width="28" x="128" y="-84"/><g font-size="28" transform="translate(0 77)"><text fill="#1d1d1b" font-family="Roboto-Medium, Roboto" font-weight="400"><tspan x="0" y="68">een niet-westerse </tspan><tspan x="0" y="105">migratieachtergrond</tspan></text><text fill="#000" font-family="Roboto-Medium, Roboto" font-weight="400"><tspan x="197" y="29">met</tspan></text><text fill="#1d1d1b" font-family="Rubik-Bold, Rubik" font-weight="bold"><tspan x="0" y="30">Nederlanders</tspan></text></g><text fill="#000" font-family="Roboto-Light, Roboto" font-size="30" font-weight="300"><tspan x="22.549316" y="31">279 respondenten</tspan></text></g><g transform="translate(101 596)"><rect fill="#fa3f47" height="284" rx="9.468235" transform="matrix(0 1 -1 0 200.880516 -84.880516)" width="27.761032" x="129" y="-84"/><g font-size="28" transform="translate(1 76)"><text fill="#000" font-family="Roboto-Medium, Roboto" font-weight="400"><tspan x="197" y="29">zonder</tspan></text><text fill="#000" font-family="Roboto-Medium, Roboto" font-weight="400"><tspan x="1" y="66">migratieachtergrond</tspan></text><text fill="#1d1d1b" font-family="Rubik-Bold, Rubik" font-weight="bold"><tspan x="0" y="30">Nederlanders</tspan></text></g><text fill="#000" font-family="Roboto-Light, Roboto" font-size="30" font-weight="300"><tspan x="17.617188" y="31">120 respondenten</tspan></text></g></g></svg>