<svg height="826" viewBox="0 0 699 826" width="699" xmlns="http://www.w3.org/2000/svg"><g fill="none" fill-rule="evenodd"><g transform="translate(417 638)"><rect fill="#0048ff" height="284" rx="9.468235" transform="matrix(0 1 -1 0 200 -84)" width="28" x="128" y="-84"/><g font-size="28" transform="translate(0 77)"><text fill="#1d1d1b" font-family="Roboto-Medium, Roboto" font-weight="400"><tspan x="0" y="68">een niet-westerse </tspan><tspan x="0" y="105">migratieachtergrond</tspan></text><text fill="#000" font-family="Roboto-Medium, Roboto" font-weight="400"><tspan x="197" y="29">met</tspan></text><text fill="#1d1d1b" font-family="Rubik-Bold, Rubik" font-weight="bold"><tspan x="0" y="30">Nederlanders</tspan></text></g><text fill="#000" font-family="Roboto-Light, Roboto" font-size="30" font-weight="300"><tspan x="22.549316" y="31">279 respondenten</tspan></text></g><g transform="translate(101 638)"><rect fill="#fa3f47" height="284" rx="9.468235" transform="matrix(0 1 -1 0 200.880516 -84.880516)" width="27.761032" x="129" y="-84"/><g font-size="28" transform="translate(1 76)"><text fill="#000" font-family="Roboto-Medium, Roboto" font-weight="400"><tspan x="197" y="29">zonder</tspan></text><text fill="#000" font-family="Roboto-Medium, Roboto" font-weight="400"><tspan x="1" y="66">migratieachtergrond</tspan></text><text fill="#1d1d1b" font-family="Rubik-Bold, Rubik" font-weight="bold"><tspan x="0" y="30">Nederlanders</tspan></text></g><text fill="#000" font-family="Roboto-Light, Roboto" font-size="30" font-weight="300"><tspan x="18.049316" y="31">129 respondenten</tspan></text></g><g transform="translate(-2 -1)"><path d="m105.98786 61.37481h284.652504v50.572079h-284.652504z" fill="#6f6f6e"/><path d="m105.98786 111.946889h284.652504v494.482549h-284.652504z" fill="#a2a1a1"/><path d="m105.98786 44.517451h284.652504v16.85736h-284.652504z" fill="#1d1d1b"/><path d="m415.156297 44.517451h284.652504v236.003035h-284.652504z" fill="#1d1d1b"/><path d="m415.156297 280.520486h284.652504v123.620637h-284.652504z" fill="#6f6f6e"/><path d="m415.156297 402.749621h284.652504v204.242792h-284.652504z" fill="#a2a1a1"/><path d="m699.808801 633.505311h-620.0045521v-585.8012139h-6.1289833v-3.1866464h9.3156297v585.8012143h616.8179057z" fill="#1d1d1b"/><g font-weight="400"><text fill="#1d1d1b" font-family="Roboto-Medium, Roboto" font-size="25.23824"><tspan x="21.764795" y="616.485584">0%</tspan></text><text fill="#1d1d1b" font-family="Roboto-Medium, Roboto" font-size="25.23824"><tspan x="11.461305" y="504.262519">20%</tspan></text><text fill="#1d1d1b" font-family="Roboto-Medium, Roboto" font-size="25.23824"><tspan x="11.461305" y="392.039454">40%</tspan></text><text fill="#fff33d" font-family="Rubik-Medium, Rubik" font-size="31.866464"><tspan x="213.569044" y="368.496206">88%</tspan></text><text fill="#fff33d" font-family="Rubik-Medium, Rubik" font-size="31.866464"><tspan x="529.949924" y="514.189681">36%</tspan></text><text fill="#fff33d" font-family="Rubik-Medium, Rubik" font-size="31.866464"><tspan x="530.534143" y="351.638847">22%</tspan></text><text fill="#fff33d" font-family="Rubik-Medium, Rubik" font-size="31.866464"><tspan x="529.949924" y="171.827011">42%</tspan></text><text fill="#1d1d1b" font-family="Roboto-Medium, Roboto" font-size="25.23824"><tspan x="11.461305" y="279.816388">60%</tspan></text><text fill="#1d1d1b" font-family="Roboto-Medium, Roboto" font-size="25.23824"><tspan x="11.461305" y="167.582701">80%</tspan></text><text fill="#1d1d1b" font-family="Roboto-Medium, Roboto" font-size="25.23824"><tspan x="0" y="55.359636">100%</tspan></text></g><path d="m73.6752656 607.003035h7.7223065" stroke="#1d1d1b" stroke-width="3.186646"/><path d="m73.6752656 494.875569h7.7223065" stroke="#1d1d1b" stroke-width="3.186646"/><path d="m73.6752656 382.748103h7.7223065" stroke="#1d1d1b" stroke-width="3.186646"/><path d="m73.6752656 270.620637h7.7223065" stroke="#1d1d1b" stroke-width="3.186646"/><path d="m73.6752656 158.503794h7.7223065" stroke="#1d1d1b" stroke-width="3.186646"/><text fill="#fff33d" font-family="Rubik-Medium, Rubik" font-size="31.866464" font-weight="400"><tspan x="227.738998" y="95.963581">9%</tspan></text><circle cx="250.013657" cy="51.400607" fill="#1d1d1b" r="5.587253"/><path d="m250.013657 46.875569c1.831168-.0042985 3.484418 1.0954621 4.188156 2.7860081s.319221 3.6385851-.974091 4.9349403-3.240442 1.6854491-4.932637.9856861c-1.692196-.6997629-2.795839-2.350424-2.795844-4.1815965-.000007-2.4949671 2.019456-4.5191812 4.514416-4.525038zm0-2.1244309c-3.6724 0-6.649469 2.9770686-6.649469 6.6494689 0 3.6724002 2.977069 6.6494689 6.649469 6.6494689s6.649469-2.9770687 6.649469-6.6494689c0-3.6724003-2.977069-6.6494689-6.649469-6.6494689z" fill="#f4e84a" fill-rule="nonzero"/><path d="m279.128983 3.19726859v30.01820941c0 .5634341-.223823 1.1037914-.622231 1.5021995s-.938766.6222315-1.5022.6222315h-24.377845v18.1957511h-5.2261v-18.1957511h-24.335357c-1.17329 0-2.124431-.9511402-2.124431-2.124431v-30.01820941c0-1.17329082.951141-2.12443096 2.124431-2.12443096h53.971169c1.160827.01741437 2.092695.96347294 2.092564 2.12443096z" fill="#1d1d1b"/><text fill="#fff33d" font-family="Rubik-Medium, Rubik" font-size="31.866464" font-weight="400"><tspan x="227.738998" y="30">3%</tspan></text></g></g></svg>