<svg height="703" viewBox="0 0 999 703" width="999" xmlns="http://www.w3.org/2000/svg"><g fill="none" fill-rule="evenodd" transform="translate(-2 -7)"><rect fill="#fa3f47" height="117.11" rx="9.12" width="45.17" x="68.06" y="592.72"/><rect fill="#0048ff" height="117.11" rx="9.12" width="45.17" x="498" y="593"/><g fill="#1d1d1b"><path d="m1000.51 454.73h-921.59v-447.2h2.83v444.37h6.03 912.73z"/><text font-family="Roboto-Medium, Roboto" font-size="24" font-weight="400"><tspan x="13.14" y="407.78">10%</tspan></text><text font-family="Roboto-Medium, Roboto" font-size="24" font-weight="400"><tspan x="13.14" y="365.31">20%</tspan></text><text font-family="Roboto-Medium, Roboto" font-size="24" font-weight="400"><tspan x="13.14" y="322.83">30%</tspan></text><text font-family="Roboto-Medium, Roboto" font-size="24" font-weight="400"><tspan x="13.14" y="280.36">40%</tspan></text><text font-family="Roboto-Medium, Roboto" font-size="24" font-weight="400"><tspan x="13.14" y="237.89">50%</tspan></text><text font-family="Roboto-Medium, Roboto" font-size="24" font-weight="400"><tspan x="13.14" y="195.42">60%</tspan></text><text font-family="Roboto-Medium, Roboto" font-size="24" font-weight="400"><tspan x="13.14" y="152.95">70%</tspan></text><text font-family="Roboto-Medium, Roboto" font-size="24" font-weight="400"><tspan x="13.14" y="110.48">80%</tspan></text><text font-family="Roboto-Medium, Roboto" font-size="24" font-weight="400"><tspan x="13.14" y="68">90%</tspan></text><text font-family="Roboto-Medium, Roboto" font-size="24" font-weight="400"><tspan x="0" y="25.53">100%</tspan></text><text font-family="Roboto-Medium, Roboto" font-size="24" font-weight="400"><tspan x="27.82" y="450.25">0%</tspan></text><text font-family="Rubik-Black, Rubik" font-size="25" font-weight="700"><tspan x="110" y="492">Controle</tspan></text><text font-family="Rubik-Black, Rubik" font-size="25" font-weight="700"><tspan x="611" y="492">Praatje</tspan></text></g><path d="m110.48 273.33h56.09v177.2h-56.09z" fill="#fa3f47"/><path d="m169.17 273.33h56.09v177.2h-56.09z" fill="#0048ff"/><path d="m357.64 304.34h56.09v146.19h-56.09z" fill="#fa3f47"/><path d="m416.33 277.76h56.09v172.77h-56.09z" fill="#0048ff"/><path d="m604.8 415.68h56.09v35.44h-56.09z" fill="#fa3f47"/><path d="m663.49 415.68h56.09v35.27h-56.09z" fill="#0048ff"/><path d="m851.96 361.93h56.09v88.6h-56.09z" fill="#fa3f47"/><path d="m910.65 392.94h56.09v57.59h-56.09z" fill="#0048ff"/><text fill="#1d1d1b" font-family="Rubik-Black, Rubik" font-size="24.03" font-weight="700"><tspan x="170.99" y="266.06">40%</tspan></text><text fill="#1d1d1b" font-family="Rubik-Black, Rubik" font-size="24.03" font-weight="700"><tspan x="112.3" y="265.88">40%</tspan></text><text fill="#1d1d1b" font-family="Rubik-Black, Rubik" font-size="24.03" font-weight="700"><tspan x="359.96" y="297.56">33%</tspan></text><text fill="#1d1d1b" font-family="Rubik-Black, Rubik" font-size="24.03" font-weight="700"><tspan x="418.88" y="271.69">39%</tspan></text><text fill="#1d1d1b" font-family="Rubik-Black, Rubik" font-size="24.03" font-weight="700"><tspan x="614.92" y="410.38">8%</tspan></text><text fill="#1d1d1b" font-family="Rubik-Black, Rubik" font-size="24.03" font-weight="700"><tspan x="673.61" y="409.98">8%</tspan></text><text fill="#1d1d1b" font-family="Rubik-Black, Rubik" font-size="24.03" font-weight="700"><tspan x="854.16" y="354.76">20%</tspan></text><text fill="#1d1d1b" font-family="Rubik-Black, Rubik" font-size="24.03" font-weight="700"><tspan x="914.91" y="385.78">13%</tspan></text><text fill="#1d1d1b" font-family="Rubik-Black, Rubik" font-size="25" font-weight="700"><tspan x="862.86" y="492.87">Anders</tspan></text><g fill="#000" font-family="Roboto-Light, Roboto" font-size="21" font-weight="300" transform="translate(125.27 679.32)"><text><tspan x="0" y="22">T</tspan></text><text><tspan x="11.53" y="22">otaal: 124</tspan></text><text><tspan x="106.77" y="22">r</tspan></text><text><tspan x="113.64" y="22">espondenten</tspan></text></g><g fill="#000" font-family="Roboto-Light, Roboto" font-size="21" font-weight="300" transform="translate(555.26 679.32)"><text><tspan x="0" y="22">T</tspan></text><text><tspan x="11.53" y="22">otaal: 244</tspan></text><text><tspan x="106.78" y="22">r</tspan></text><text><tspan x="113.65" y="22">espondenten</tspan></text></g><g font-size="28" transform="translate(125 593)"><text fill="#000" font-family="Roboto-Medium, Roboto" font-weight="400"><tspan x="197" y="29">zonder</tspan></text><text fill="#000" font-family="Roboto-Medium, Roboto" font-weight="400"><tspan x="1" y="66">migratieachtergrond</tspan></text><text fill="#1d1d1b" font-family="Rubik-Bold, Rubik" font-weight="bold"><tspan x="0" y="30">Nederlanders</tspan></text></g><text fill="#000" font-family="Rubik-Black, Rubik" font-size="25" font-weight="700"><tspan x="341.2625" y="491">Ik deed iets </tspan><tspan x="356.55" y="520">verkeerd</tspan></text><g font-size="28" transform="translate(558 593)"><text fill="#1d1d1b" font-family="Roboto-Medium, Roboto" font-weight="400"><tspan x="0" y="68">westerse migratieachtergrond</tspan></text><text fill="#000" font-family="Roboto-Medium, Roboto" font-weight="400"><tspan x="197" y="29">met een niet-</tspan></text><text fill="#1d1d1b" font-family="Rubik-Bold, Rubik" font-weight="bold"><tspan x="0" y="30">Nederlanders</tspan></text></g></g></svg>