<svg height="707" viewBox="0 0 1092 707" width="1092" xmlns="http://www.w3.org/2000/svg"><g fill="none" fill-rule="evenodd" transform="translate(-2 -7)"><g fill="#1d1d1b"><path d="m1093.86 455.04h-1014.94v-447.2h2.83v444.36h1012.11z"/><text font-family="Roboto-Medium, Roboto" font-size="24.03" font-weight="400"><tspan x="13.14" y="411.32">10%</tspan></text><text font-family="Roboto-Medium, Roboto" font-size="24.03" font-weight="400"><tspan x="13.14" y="368.42">20%</tspan></text><text font-family="Roboto-Medium, Roboto" font-size="24.03" font-weight="400"><tspan x="13.14" y="325.51">30%</tspan></text><text font-family="Roboto-Medium, Roboto" font-size="24.03" font-weight="400"><tspan x="13.14" y="282.61">40%</tspan></text><text font-family="Roboto-Medium, Roboto" font-size="24.03" font-weight="400"><tspan x="13.14" y="239.76">50%</tspan></text><text font-family="Roboto-Medium, Roboto" font-size="24.03" font-weight="400"><tspan x="13.14" y="196.92">60%</tspan></text><text font-family="Roboto-Medium, Roboto" font-size="24.03" font-weight="400"><tspan x="13.14" y="154.08">70%</tspan></text><text font-family="Roboto-Medium, Roboto" font-size="24.03" font-weight="400"><tspan x="13.14" y="111.24">80%</tspan></text><text font-family="Roboto-Medium, Roboto" font-size="24.03" font-weight="400"><tspan x="13.14" y="68.4">90%</tspan></text><text font-family="Roboto-Medium, Roboto" font-size="24.03" font-weight="400"><tspan x="0" y="25.56">100%</tspan></text><text font-family="Roboto-Medium, Roboto" font-size="24.03" font-weight="400"><tspan x="27.82" y="450.7">0%</tspan></text><text font-family="Rubik-Black, Rubik" font-size="25" font-weight="700"><tspan x="118.8" y="492.43">Melding</tspan></text><text font-family="Rubik-Black, Rubik" font-size="25" font-weight="700"><tspan x="330" y="496">Aangifte</tspan></text><text font-family="Rubik-Black, Rubik" font-size="25" font-weight="700"><tspan x="501.075" y="496">Hulp, informatie </tspan><tspan x="549.1625" y="525">of advies</tspan></text></g><path d="m110.48 375.53h56.09v75.31h-56.09z" fill="#fa3f47"/><path d="m169.17 371.1h56.09v79.74h-56.09z" fill="#0048ff"/><text fill="#1d1d1b" font-family="Rubik-Black, Rubik" font-size="24.03" font-weight="700"><tspan x="173.23" y="364.47">18%</tspan></text><text fill="#1d1d1b" font-family="Rubik-Black, Rubik" font-size="24.03" font-weight="700"><tspan x="115.77" y="369.2">17%</tspan></text><path d="m327.63 331.23h56.09v119.61h-56.09z" fill="#fa3f47"/><path d="m386.32 304.65h56.09v146.19h-56.09z" fill="#0048ff"/><text fill="#1d1d1b" font-family="Rubik-Black, Rubik" font-size="24.03" font-weight="700"><tspan x="331.09" y="324.55">27%</tspan></text><text fill="#1d1d1b" font-family="Rubik-Black, Rubik" font-size="24.03" font-weight="700"><tspan x="388.64" y="298.61">33%</tspan></text><path d="m603.47 304.65h56.09v146.19h-56.09z" fill="#0048ff"/><path d="m544.78 326.8h56.09v124.04h-56.09z" fill="#fa3f47"/><text fill="#1d1d1b" font-family="Rubik-Black, Rubik" font-size="24.03" font-weight="700"><tspan x="547.02" y="322.4">28%</tspan></text><text fill="#1d1d1b" font-family="Rubik-Black, Rubik" font-size="24.03" font-weight="700"><tspan x="605.79" y="298.61">33%</tspan></text><path d="m761.93 410.97h56.09v39.87h-56.09z" fill="#fa3f47"/><path d="m820.62 428.69h56.09v22.15h-56.09z" fill="#0048ff"/><text fill="#1d1d1b" font-family="Rubik-Black, Rubik" font-size="24.03" font-weight="700"><tspan x="772.47" y="404.45">9%</tspan></text><text fill="#1d1d1b" font-family="Rubik-Black, Rubik" font-size="24.03" font-weight="700"><tspan x="831.1" y="422.28">5%</tspan></text><text fill="#1d1d1b" font-family="Rubik-Black, Rubik" font-size="25" font-weight="700"><tspan x="769" y="501">Praatje</tspan></text><path d="m979.08 366.67h56.09v84.17h-56.09z" fill="#fa3f47"/><path d="m1037.77 402.11h56.09v48.73h-56.09z" fill="#0048ff"/><text fill="#1d1d1b" font-family="Rubik-Black, Rubik" font-size="24.03" font-weight="700"><tspan x="983.56" y="361.03">19%</tspan></text><text fill="#1d1d1b" font-family="Rubik-Black, Rubik" font-size="24.03" font-weight="700"><tspan x="1043.96" y="396.67">11%</tspan></text><text fill="#1d1d1b" font-family="Rubik-Black, Rubik" font-size="25" font-weight="700"><tspan x="991.28" y="501.04">Anders</tspan></text><rect fill="#fa3f47" height="117.11" rx="9.12" width="45.17" x="68.06" y="596.72"/><rect fill="#0048ff" height="117.11" rx="9.12" width="45.17" x="498" y="597"/><g fill="#000" font-family="Roboto-Light, Roboto" font-size="21" font-weight="300" transform="translate(125.27 683.32)"><text><tspan x="0" y="22">T</tspan></text><text><tspan x="11.53" y="22">otaal: 107</tspan></text><text><tspan x="106.77" y="22">r</tspan></text><text><tspan x="113.64" y="22">espondenten</tspan></text></g><g fill="#000" font-family="Roboto-Light, Roboto" font-size="21" font-weight="300" transform="translate(555.26 683.32)"><text><tspan x="0" y="22">T</tspan></text><text><tspan x="11.53" y="22">otaal: 113</tspan></text><text><tspan x="106.78" y="22">r</tspan></text><text><tspan x="113.65" y="22">espondenten</tspan></text></g><g font-size="28" transform="translate(125 597)"><text fill="#000" font-family="Roboto-Medium, Roboto" font-weight="400"><tspan x="197" y="29">zonder</tspan></text><text fill="#000" font-family="Roboto-Medium, Roboto" font-weight="400"><tspan x="1" y="66">migratieachtergrond</tspan></text><text fill="#1d1d1b" font-family="Rubik-Bold, Rubik" font-weight="bold"><tspan x="0" y="30">Nederlanders</tspan></text></g><g font-size="28" transform="translate(558 597)"><text fill="#1d1d1b" font-family="Roboto-Medium, Roboto" font-weight="400"><tspan x="0" y="68">westerse migratieachtergrond</tspan></text><text fill="#000" font-family="Roboto-Medium, Roboto" font-weight="400"><tspan x="197" y="29">met een niet-</tspan></text><text fill="#1d1d1b" font-family="Rubik-Bold, Rubik" font-weight="bold"><tspan x="0" y="30">Nederlanders</tspan></text></g></g></svg>