<svg height="646" viewBox="0 0 1005 646" width="1005" xmlns="http://www.w3.org/2000/svg"><g fill="none" fill-rule="evenodd" transform="translate(-1)"><rect fill="#0048ff" height="295.72" rx="9.12" transform="matrix(0 1 -1 0 1293.23 -259.51)" width="26.74" x="763" y="369"/><text fill="#000" font-family="Roboto-Light, Roboto" font-size="30" font-weight="300"><tspan x="658.549316" y="490">389 respondenten</tspan></text><g font-size="28"><text fill="#1d1d1b" font-family="Roboto-Medium, Roboto" font-weight="400"><tspan x="629" y="603">een niet-westerse </tspan><tspan x="629" y="640">migratieachtergrond</tspan></text><text fill="#000" font-family="Roboto-Medium, Roboto" font-weight="400"><tspan x="826" y="564">met</tspan></text><text fill="#1d1d1b" font-family="Rubik-Bold, Rubik" font-weight="bold"><tspan x="629" y="565">Nederlanders</tspan></text></g><rect fill="#fa3f47" height="295.72" rx="9.12" transform="matrix(0 1 -1 0 746.23 287.49)" width="26.74" x="216" y="369"/><text fill="#000" font-family="Roboto-Medium, Roboto" font-size="28" font-weight="400"><tspan x="279" y="564">zonder</tspan></text><text fill="#000" font-family="Roboto-Medium, Roboto" font-size="28" font-weight="400"><tspan x="83" y="601">migratieachtergrond</tspan></text><text fill="#1d1d1b" font-family="Rubik-Bold, Rubik" font-size="28" font-weight="bold"><tspan x="82" y="565">Nederlanders</tspan></text><text fill="#000" font-family="Roboto-Light, Roboto" font-size="30" font-weight="300"><tspan x="109.549316" y="490">236 respondenten</tspan></text><path d="m70.4915033 67.0632533 1.5233333-1.4767686c42.9022444-41.5191485 97.1050324-63.46113536 156.7440304-63.46113536h2.120719v231.36373366z" fill="#a2a1a1"/><path d="m228.758867 4.24072052v224.01980348l-155.2804356-161.1473799c42.6334206-41.249738 96.0197826-62.86244541 155.3202616-62.86244541zm4.221525-4.24072052h-4.231481c-60.186602 0-114.897168 22.1515284-158.2076256 64.0598253l-3.0466667 2.9934498 2.9869281 3.0533188 155.3202612 161.1374021 7.278148 7.553471v-238.797467z" fill="#fff" fill-rule="nonzero"/><path d="m4.54013072 202.806223.2588671-2.105393c6.64093678-54.231332 27.99747278-97.157402 67.21583878-135.1143453l1.5233333-1.4667904 160.8958611 166.9746287z" fill="#6f6f6e"/><path d="m73.4784314 67.1131441 155.3202616 161.1473799-221.89888908-27.300262c6.61106758-54.031769 27.50960788-96.029869 66.57862748-133.8471179zm.1095207-5.9868996-3.0466667 2.9934498c-20.0721569 19.3676201-35.2158823 39.6532317-46.307342 61.9444537-11.0914597 22.291223-18.14061007 46.62797-21.53575168 74.377249l-.5177342 4.210786 4.2016122.518865 221.85906328 27.320218 11.868061 1.456813-8.30366-8.611158-155.3202617-161.1473795-2.9869281-3.0533188z" fill="#fff" fill-rule="nonzero"/><path d="m228.758867 454.405677c-124.620525-.005511-225.64250547-101.25253-225.64250534-226.145153-.0472303-9.21373.51488014-18.420469 1.68263616-27.559694l.24891068-2.135328 221.5902395 27.270328v-223.71048066h2.120719c91.256692.00936941 173.523513 55.10532486 208.444672 139.60012366 34.921159 84.494799 15.620666 181.751381-48.902885 246.425182-42.217324 42.552133-99.666237 66.409701-159.541787 66.255022z" fill="#020303"/><path d="m228.758867 4.24072052c123.459695 0 223.531743 100.30052448 223.531743 224.01980348s-100.082004 224.019804-223.531743 224.019804c-123.449738 0-223.53174282-100.300525-223.53174282-224.019804-.04528054-9.12714.51350564-18.247241 1.67267974-27.300262l221.85906308 27.300262zm0-4.24072052h-4.231481v223.510917l-217.1198043-26.761441-4.2016122-.518865-.50777778 4.210786c-1.17905818 9.225267-1.74781655 18.518603-1.70254902 27.819127.06840036 108.567528 76.4115511 202.072288 182.5854743 223.629897 106.173923 21.557609 212.811679-34.794612 255.039319-134.774329 29.766069-70.49738 22.278127-151.255757-19.939467-215.049612-42.217594-63.7938549-113.539744-102.12325805-189.922102-102.06648z" fill="#fff" fill-rule="nonzero"/><text fill="#f4e84a" font-family="Rubik-Black, Rubik" font-size="39" font-weight="700"><tspan x="282.14" y="305.43">77%</tspan></text><text fill="#f4e84a" font-family="Rubik-Black, Rubik" font-size="39" font-weight="700"><tspan x="42.11" y="170.79">11%</tspan></text><text fill="#f4e84a" font-family="Rubik-Black, Rubik" font-size="39" font-weight="700"><tspan x="131.86" y="85.11">12%</tspan></text><g transform="translate(549)"><path d="m5.06 259.77c-17.3458528-123.573157 68.7430866-237.8197284 192.31-255.21 10.423223-1.42728164 20.929578-2.16222538 31.45-2.2h2.18v227.81l-225.6 31.71z" fill="#a2a1a1"/><path d="m228.82 4.49v223.83l-221.66 31.16c-17.16-122.42 68.09-235.61 190.51-252.81 10.323569-1.41598195 20.729836-2.14425363 31.15-2.18zm4.25-4.25h-4.25c-10.61758.03379487-21.221094.77543954-31.74 2.22-59.916381 8.3848625-114.0402877 40.2487882-150.445087 88.5703069-36.4047993 48.3215191-52.10283258 109.1349941-43.634913 169.0396931l.59 4.21 4.21-.59 221.66-31.15 3.66-.52v-231.78z" fill="#fff" fill-rule="nonzero"/><path d="m133.32 433.12c-36-16.8-65.31-40.24-87.1-69.68s-35.63-64.32-41.16-103.67l-.3-2.1 227.64-32-97.15 208.33z" fill="#6f6f6e"/><path d="m228.82 228.32-94.6 202.87c-71.7-33.44-116.05-93.37-127.06-171.71zm7.18-5.32-7.75 1.09-221.68 31.18-4.21.59.59 4.21c5.58 39.7 19.57 74.9 41.56 104.63s51.58 53.4 87.92 70.34l3.85 1.8 1.8-3.85 94.59-202.87z" fill="#fff" fill-rule="nonzero"/><path d="m228.82 454.29c-35.11 0-63.67-6.34-95.5-21.17l-1.92-.9 95.29-204.37v-225.49h2.13c91.374663.03728529 173.736506 55.0938526 208.704314 139.512943 34.967808 84.419091 15.660605 181.588688-48.924314 246.227057-42.282059 42.517946-99.817329 66.35234-159.78 66.19z" fill="#020303"/><path d="m228.82 4.49c123.62 0 223.83 100.21 223.83 223.83s-100.21 223.84-223.83 223.84c-34.61 0-63.23-6.34-94.6-21l94.6-202.87zm0-4.25h-4.25v227.14l-94.2 202-1.8 3.86 3.86 1.79c32.12 15 61 21.37 96.39 21.37 108.472749-.087455 201.886524-76.537613 223.423773-182.850791 21.537249-106.313177-34.757491-213.0917441-134.643773-255.389209-28.086865-11.88369677-58.28261-17.97862534-88.78-17.92z" fill="#fff" fill-rule="nonzero"/></g><text fill="#f4e84a" font-family="Rubik-Black, Rubik" font-size="39" font-weight="700"><tspan x="855.98" y="270.73">57%</tspan></text><text fill="#f4e84a" font-family="Rubik-Black, Rubik" font-size="39" font-weight="700"><tspan x="608.62" y="325.9">16%</tspan></text><text fill="#f4e84a" font-family="Rubik-Black, Rubik" font-size="39" font-weight="700"><tspan x="629.91" y="152.97">27%</tspan></text></g></svg>