<svg height="646" viewBox="0 0 1005 646" width="1005" xmlns="http://www.w3.org/2000/svg"><g fill="none" fill-rule="evenodd"><rect fill="#0048ff" height="307.011682" rx="9.468235" transform="matrix(0 1 -1 0 1295.386357 -260.374675)" width="27.761032" x="764" y="364"/><rect fill="#fa3f47" height="307.011682" rx="9.468235" transform="matrix(0 1 -1 0 747.386357 287.625325)" width="27.761032" x="216" y="364"/><g font-size="28" transform="translate(630 535)"><text fill="#1d1d1b" font-family="Roboto-Medium, Roboto" font-weight="400"><tspan x="0" y="68">een niet-westerse </tspan><tspan x="0" y="105">migratieachtergrond</tspan></text><text fill="#000" font-family="Roboto-Medium, Roboto" font-weight="400"><tspan x="197" y="29">met</tspan></text><text fill="#1d1d1b" font-family="Rubik-Bold, Rubik" font-weight="bold"><tspan x="0" y="30">Nederlanders</tspan></text></g><g font-size="28" transform="translate(76 535)"><text fill="#000" font-family="Roboto-Medium, Roboto" font-weight="400"><tspan x="197" y="29">zonder</tspan></text><text fill="#000" font-family="Roboto-Medium, Roboto" font-weight="400"><tspan x="1" y="66">migratieachtergrond</tspan></text><text fill="#1d1d1b" font-family="Rubik-Bold, Rubik" font-weight="bold"><tspan x="0" y="30">Nederlanders</tspan></text></g><text fill="#000" font-family="Roboto-Light, Roboto" font-size="30" font-weight="300"><tspan x="658.549316" y="490">382 respondenten</tspan></text><text fill="#000" font-family="Roboto-Light, Roboto" font-size="30" font-weight="300"><tspan x="109.549316" y="490">234 respondenten</tspan></text><path d="m81.5814847 57.2693682 1.6264411-1.3640305c41.7985372-35.0267102 90.6616152-52.76906319 145.2222272-52.76906319h2.125349v231.44710249z" fill="#a2a1a1"/><path d="m228.430153 5.22712418v223.53174282l-143.8552185-171.2306317c41.6588425-34.9171895 89.4742135-52.30111112 143.8552185-52.30111112zm4.250699-4.23148148h-4.250699c-26.629527-.15877499-53.080377 4.34680976-78.148996 13.3117429-24.987585 9.227086-48.158937 22.7572263-68.4601963 39.9750545l-3.2429039 2.7181046 2.7240393 3.2457952 143.8552179 171.2505451 7.503581 8.960784v-239.4620263z" fill="#fff" fill-rule="nonzero"/><path d="m10.1976856 287.163268c-11.40504368-42.513943-10.71655023-86.262484 1.9956332-126.446623 12.7121834-40.18414 37.2484934-76.5151417 71.014607-104.8113073l1.6064847-1.3640305 147.3775105 175.4521568-221.4454363 59.210872z" fill="#6f6f6e"/><path d="m84.5749345 57.5282353 143.8552185 171.2505447-216.1869434 57.836884c-23.029607-85.864226 4.150917-171.95745 72.3317249-229.0874287zm.5188646-5.9738562-3.2728384 2.728061c-34.0455022 28.5550327-58.871179 65.1150329-71.6631878 105.7472109-12.79200871 40.632179-13.52041482 84.76902-2.00561133 127.71109l1.09759826 4.092091 4.10102617-1.105163 216.147031-57.87671 6.435917-1.722462-4.250699-5.117604-143.8751747-171.2007623-2.7240393-3.2557516z" fill="#fff" fill-rule="nonzero"/><path d="m228.430153 454.411329c-51.417489 0-99.212904-15.810806-138.2375111-45.719913-39.024607-29.909107-66.6840829-71.925229-79.9949563-121.528148l-.54879914-2.051024 216.66589554-57.976275v-224.01960734h2.115371c59.948315.02640025 117.430793 23.81421464 159.80194 66.13039414 42.371148 42.3161792 66.160141 99.6944022 66.133671 159.5121112.029117 59.819434-23.758707 117.200214-66.130142 159.518548-42.371434 42.318333-99.855424 66.107514-159.805469 66.133914z" fill="#1d1d1b"/><path d="m228.430153 5.22712418c123.609519 0 223.810262 100.08200482 223.810262 223.53174282 0 123.449739-100.200743 223.531743-223.810262 223.531743-103.772926 0-189.3057644-65.51329-216.1869434-165.674946l216.1869434-57.856797zm0-4.23148148h-4.240721v224.5174293l-213.0438206 57.010501-4.09104808 1.095207 1.09759825 4.121961c13.43061133 50.050958 41.34951963 92.465337 80.74331873 122.663181 39.3937987 30.197843 87.6482097 46.148039 139.5346727 46.148039 92.316627-.032748 175.523827-55.550085 210.823701-140.665355 35.299873-85.11527 15.741045-183.067277-49.556583-248.1829023-42.713361-42.7696763-100.7554-66.77873604-161.267118-66.708061z" fill="#fff" fill-rule="nonzero"/><g fill="#f4e84a" font-family="Rubik-Black, Rubik" font-size="39.6" font-weight="700"><text><tspan x="327.473428" y="294.941155">71%</tspan></text><text><tspan x="52.086026" y="197.169041">18%</tspan></text><text><tspan x="138.716463" y="92.357734">11%</tspan></text></g><g transform="translate(548)"><path d="m4.97821351 259.731659c-8.33596187-59.395572 7.21401179-119.677055 43.22880929-167.5820666 36.0147975-47.9050119 89.5439912-79.5090478 148.8107552-87.85898105 10.407299-1.42947806 20.898031-2.16283257 31.402571-2.1951965h2.110762v228.01107015l-225.25420468 31.730567z" fill="#a2a1a1"/><path d="m228.460174 4.24072052v224.01980348l-221.34132868 31.17179c-17.18479302-122.511921 67.99244008-235.7940389 190.23745068-253.00637514 10.308407-1.41622121 20.699135-2.14622693 31.103878-2.18521834zm4.231482-4.24072052h-4.231482c-10.604776.03240777-21.19551.77577787-31.701263 2.225131-59.837737 8.3815603-113.8936503 40.2661601-150.2530537 88.6259831-36.3594033 48.3598229-52.03751859 109.2249659-43.57866776 169.1798899l.5874292 4.200808 4.19165577-.588712 221.34132849-31.151834 3.644053-.508886z" fill="#fff" fill-rule="nonzero"/><path d="m228.460174 454.405677c-55.437385 0-108.256231-19.417511-148.71915-54.680349-40.4629194-35.262839-67.0067538-84.974062-74.76281049-139.993669l-.28873639-2.095414 225.84163388-31.820372v228.589804z" fill="#6f6f6e"/><path d="m228.460174 228.260524v224.019804c-113.572963 0-205.5603919-80.094738-221.34132868-192.848014l221.34132868-31.181768zm4.231482-4.889301-4.818911.678515-221.34132888 31.191747-4.19165577.588712.58742919 4.200807c3.79822631 27.69867 12.51848516 54.491076 25.74732026 79.1069 25.5772057 47.506704 67.5329945 84.060096 118.0334422 102.834978 26.16319 9.710581 53.852591 14.638031 81.752222 14.548166l4.231482.001207v-233.141054z" fill="#fff" fill-rule="nonzero"/><path d="m226.339455 454.406435v-452.28108566h2.120719c91.256692.00936941 173.523513 55.10532486 208.444672 139.60012366 34.921159 84.494799 15.620666 181.751381-48.902885 246.425182-42.216693 42.553075-99.666017 66.410814-159.541787 66.255022z" fill="#1d1d1b"/><path d="m228.460174 4.24072052c123.439782 0 223.561612 100.30052448 223.561612 224.01980348s-100.12183 224.019804-223.561612 224.019804zm0-4.24072052-4.231481-.00026193v456.52130993h4.231481c108.310718-.095639 201.581151-76.600874 223.086391-182.986998 21.505239-106.386125-34.700571-213.2390668-134.434365-255.5733513-28.031561-11.89831251-58.170124-18.00706099-88.6122-17.9606987z" fill="#fff" fill-rule="nonzero"/><g fill="#f4e84a" font-family="Rubik-Black, Rubik" font-size="39.6" font-weight="700"><text><tspan x="302.526035" y="248.596987">50%</tspan></text><text><tspan x="104.263704" y="340.356201">23%</tspan></text><text><tspan x="96.895948" y="160.579585">27%</tspan></text></g></g></g></svg>