<svg height="259" viewBox="0 0 507 259" width="507" xmlns="http://www.w3.org/2000/svg" xmlns:xlink="http://www.w3.org/1999/xlink"><mask id="a" fill="#fff"><path d="m.227.768h339.549v38.172h-339.549z" fill="#fff" fill-rule="evenodd"/></mask><mask id="b" fill="#fff"><path d="m.06.62800655h147.166411v258.31199345h-147.166411z" fill="#fff" fill-rule="evenodd"/></mask><g fill="none" fill-rule="evenodd"><g fill="#fffffe"><g transform="translate(167 220)"><path d="m75.273 39h-26.768v-38.232h7.652v30.581h19.116z" mask="url(#a)"/><path d="m92.899 39h-7.626v-30.58h-11.49v-7.652h30.58v7.652h-11.464z" mask="url(#a)"/><path d="m8.786 15.419c.603-1.395 1.425-2.613 2.465-3.653s2.253-1.857 3.64-2.453c1.386-.595 2.87-.893 4.452-.893s3.071.298 4.466.893c1.395.596 2.612 1.413 3.652 2.453s1.858 2.258 2.453 3.653c.596 1.396.894 2.884.894 4.465v3.811h-22.929v-3.811c0-1.581.302-3.069.907-4.465zm28.993-.613c-.453-1.627-1.098-3.151-1.933-4.573-.836-1.422-1.835-2.71-2.999-3.866-1.164-1.155-2.453-2.151-3.866-2.986-1.413-.836-2.933-1.479-4.559-1.933-1.627-.453-3.32-.68-5.079-.68-1.76 0-3.453.227-5.079.68-1.626.454-3.146 1.097-4.559 1.933-1.413.835-2.702 1.831-3.866 2.986-1.164 1.156-2.164 2.444-3 3.866-.835 1.422-1.48 2.946-1.932 4.573-.454 1.626-.68 3.319-.68 5.078v19.116h7.652v-7.652h22.929v7.652h7.651v-19.116c0-1.759-.227-3.452-.68-5.078z" mask="url(#a)"/><path d="m190.014 39h-26.207v-38.232h26.207v7.652h-18.556v7.652h18.556v7.651h-18.556v7.626h18.556z" mask="url(#a)"/><path d="m226.782 39h-26.768v-38.232h7.652v30.581h19.116z" mask="url(#a)"/><path d="m262.989 39h-26.207v-38.232h26.207v7.652h-18.555v7.652h18.555v7.651h-18.555v7.626h18.555z" mask="url(#a)"/><path d="m292.105 39h-7.625v-30.58h-11.491v-7.652h30.58v7.652h-11.464z" mask="url(#a)"/><path d="m339.776 39h-26.207v-38.232h26.207v7.652h-18.555v7.652h18.555v7.651h-18.555v7.626h18.555z" mask="url(#a)"/><path d="m153.127 14.806c-.454-1.627-1.098-3.147-1.934-4.56-.835-1.413-1.83-2.701-2.985-3.866-1.156-1.164-2.444-2.164-3.866-3-1.422-.835-2.946-1.479-4.572-1.932-1.627-.454-3.32-.68-5.08-.68h-11.517v15.304h7.652v-7.652h3.865c1.582 0 3.07.302 4.466.907 1.395.603 2.614 1.426 3.653 2.465 1.04 1.04 1.857 2.253 2.453 3.64.595 1.386.893 2.87.893 4.452s-.298 3.071-.893 4.466c-.596 1.396-1.413 2.612-2.453 3.653-1.039 1.039-2.258 1.857-3.653 2.452-1.396.596-2.884.894-4.466.894h-11.517v7.651h11.517c1.76 0 3.453-.226 5.08-.68 1.626-.453 3.15-1.097 4.572-1.932 1.422-.836 2.71-1.836 3.866-3 1.155-1.164 2.15-2.453 2.985-3.866.836-1.413 1.48-2.933 1.934-4.559.453-1.626.68-3.319.68-5.079 0-1.759-.227-3.453-.68-5.078" mask="url(#a)"/></g><path d="m242.507 180.541c0-1.713-.327-3.329-.983-4.85-.655-1.521-1.543-2.841-2.664-3.961-1.12-1.121-2.441-2.008-3.961-2.664-1.521-.655-3.138-.983-4.849-.983-1.73 0-3.352.328-4.862.983-1.514.656-2.834 1.543-3.963 2.664-1.129 1.12-2.021 2.44-2.677 3.961-.655 1.521-.983 3.137-.983 4.85 0 1.712.328 3.318.983 4.822.656 1.502 1.548 2.818 2.677 3.947 1.129 1.13 2.449 2.022 3.963 2.678 1.51.656 3.132.983 4.862.983 1.711 0 3.328-.327 4.849-.983 1.52-.656 2.841-1.548 3.961-2.678 1.121-1.129 2.009-2.445 2.664-3.947.656-1.504.983-3.11.983-4.822zm7.786 0c0 1.857-.24 3.646-.724 5.368-.483 1.721-1.161 3.333-2.035 4.836-.875 1.502-1.93 2.873-3.169 4.112-1.239 1.238-2.605 2.298-4.098 3.182-1.494.883-3.106 1.567-4.836 2.049s-3.523.724-5.381.724-3.647-.242-5.369-.724c-1.721-.482-3.333-1.166-4.835-2.049-1.503-.884-2.874-1.944-4.112-3.182-1.239-1.239-2.299-2.61-3.182-4.112-.884-1.503-1.567-3.115-2.05-4.836-.482-1.722-.724-3.511-.724-5.368 0-1.858.242-3.652.724-5.382.483-1.73 1.166-3.343 2.05-4.836.883-1.493 1.943-2.859 3.182-4.098 1.238-1.238 2.609-2.295 4.112-3.169 1.502-.874 3.114-1.553 4.835-2.035 1.722-.482 3.511-.725 5.369-.725s3.651.243 5.381.725 3.342 1.161 4.836 2.035c1.493.874 2.859 1.931 4.098 3.169 1.239 1.239 2.294 2.605 3.169 4.098.874 1.493 1.552 3.106 2.035 4.836.484 1.73.724 3.524.724 5.382z"/><path d="m293.48 200.812h-8.674l-15.624-26.671v26.671h-8.108v-40.516h8.674l15.624 26.7v-26.7h8.108z"/><path d="m323.827 200.812h-8.08v-32.407h-12.178v-8.109h32.407v8.109h-12.149z"/><path d="m354.173 168.405v16.217h8.109c1.111 0 2.156-.212 3.136-.635.979-.424 1.836-1.003 2.571-1.737.735-.735 1.314-1.597 1.738-2.585.424-.99.636-2.039.636-3.151 0-1.111-.212-2.161-.636-3.15s-1.003-1.85-1.738-2.585-1.592-1.314-2.571-1.738c-.98-.424-2.025-.636-3.136-.636zm0 32.407h-8.108v-40.516h16.217c1.488 0 2.919.194 4.295.58 1.374.386 2.66.932 3.856 1.638 1.196.707 2.289 1.554 3.278 2.543.988.989 1.836 2.087 2.542 3.292.707 1.206 1.253 2.496 1.639 3.871.385 1.374.579 2.806.579 4.294 0 1.394-.174 2.751-.523 4.069-.348 1.318-.847 2.57-1.497 3.757s-1.446 2.279-2.388 3.277c-.941.999-1.996 1.865-3.164 2.599l4.493 10.596h-8.618l-3.531-8.165-9.07.056z"/><path d="m468.915 200.812h-28.366v-40.516h8.108v32.407h20.258z"/><path d="m506.776 200.812h-27.772v-40.516h27.772v8.109h-19.664v8.109h19.664v8.108h-19.664v8.081h19.664z"/><path d="m167.947 185.936c.481 1.724 1.163 3.335 2.049 4.832.885 1.497 1.94 2.863 3.164 4.097 1.225 1.233 2.59 2.292 4.097 3.178 1.507.885 3.121 1.568 4.846 2.048 1.723.481 3.517.721 5.382.721h12.204v-8.109h-12.204c-1.676 0-3.254-.32-4.733-.961-1.478-.64-2.769-1.511-3.871-2.613s-1.968-2.387-2.599-3.856c-.631-1.47-.946-3.042-.946-4.719 0-1.676.315-3.254.946-4.733.631-1.478 1.497-2.768 2.599-3.87s2.393-1.969 3.871-2.599c1.479-.631 3.057-.947 4.733-.947h12.204v-8.109h-12.204c-1.865 0-3.659.241-5.382.721-1.725.48-3.339 1.163-4.846 2.048-1.507.886-2.872 1.945-4.097 3.179-1.224 1.234-2.279 2.599-3.164 4.096-.886 1.498-1.568 3.109-2.049 4.831-.479 1.724-.72 3.519-.72 5.383 0 1.865.241 3.659.72 5.382"/><path d="m421.982 180.541c0-1.713-.328-3.329-.983-4.85-.656-1.521-1.544-2.841-2.664-3.961-1.121-1.121-2.441-2.008-3.961-2.664-1.521-.655-3.139-.983-4.85-.983-1.73 0-3.351.328-4.862.983-1.513.656-2.833 1.543-3.962 2.664-1.129 1.12-2.022 2.44-2.678 3.961-.655 1.521-.983 3.137-.983 4.85 0 1.712.328 3.318.983 4.822.656 1.502 1.549 2.818 2.678 3.947 1.129 1.13 2.449 2.022 3.962 2.678 1.511.656 3.132.983 4.862.983 1.711 0 3.329-.327 4.85-.983 1.52-.656 2.84-1.548 3.961-2.678 1.12-1.129 2.008-2.445 2.664-3.947.655-1.504.983-3.11.983-4.822zm7.786 0c0 1.857-.241 3.646-.725 5.368-.482 1.721-1.16 3.333-2.035 4.836-.874 1.502-1.93 2.873-3.168 4.112-1.239 1.238-2.605 2.298-4.099 3.182-1.494.883-3.106 1.567-4.836 2.049s-3.523.724-5.381.724c-1.857 0-3.647-.242-5.369-.724-1.72-.482-3.333-1.166-4.835-2.049-1.503-.884-2.873-1.944-4.112-3.182-1.238-1.239-2.299-2.61-3.182-4.112-.884-1.503-1.567-3.115-2.049-4.836-.483-1.722-.724-3.511-.724-5.368 0-1.858.241-3.652.724-5.382.482-1.73 1.165-3.343 2.049-4.836.883-1.493 1.944-2.859 3.182-4.098 1.239-1.238 2.609-2.295 4.112-3.169 1.502-.874 3.115-1.553 4.835-2.035 1.722-.482 3.512-.725 5.369-.725 1.858 0 3.651.243 5.381.725s3.342 1.161 4.836 2.035 2.86 1.931 4.099 3.169c1.238 1.239 2.294 2.605 3.168 4.098.875 1.493 1.553 3.106 2.035 4.836.484 1.73.725 3.524.725 5.382z"/></g><path d="m100.675 31.733c-13.808 5.443-21.591-4.351-21.591-4.351s-1.661-2.428 2.253-2.623c0 0 2.592-.071 7.804.571 0 0 4.937 2.153 11.534 6.403" fill="#2b4d8f"/><path d="m92.968 77.178c-9.697 0-10.283 6.948-10.283 6.948s-1.316 7.76 8.118 3.188c0 0 9.705-5.284 10.99 3.316.998-2.513 1.571-5.303 1.673-8.246-2.525-5.275-10.498-5.206-10.498-5.206" fill="#de4a4f"/><path d="m23.492 50.999 10.224-4.347 2.713 15.41.08.465c.06.329.168.656.328.97.881 1.726 2.994 2.411 4.72 1.531l13.25-6.758 6.959 6.702c.693.669 1.793.732 2.561.111.831-.673.96-1.892.287-2.723l-7.37-9.108c-.632-.778-1.712-1.114-2.708-.752l-.309.111-10.717 3.887-.887-17.554c-.02-.349-.079-.727-.179-1.077-.729-2.552-3.388-4.03-5.94-3.301l-.603.172-16.496 4.712c-.229.067-.491.157-.715.253-3.12 1.326-4.573 4.93-3.247 8.049s4.93 4.573 8.049 3.247" fill="#f3eb5b" mask="url(#b)"/><path d="m64.337 72.179-14.829-2.01c-.923-.124-1.885.263-2.452 1.082l-8.352 12.076-10.53-15.711c-.159-.235-.356-.48-.563-.689-1.833-1.858-4.826-1.877-6.684-.044l-19.103 18.858c-.126.126-.257.265-.374.404-2.187 2.585-1.864 6.454.722 8.641s6.454 1.863 8.641-.722l13.368-15.807 11.507 13.863.231.28c.266.318.592.595.974.813 1.721.984 3.914.386 4.898-1.336l9.149-16.007 13.113.163c.965.013 1.81-.695 1.943-1.676.143-1.059-.599-2.034-1.659-2.178" fill="#f3eb5b" mask="url(#b)"/><path d="m92.46 120.336c-2.986-.923-3.428-3.065-3.428-3.065s-.481-.937-.472-3.325c12.859-2.191 26.008-13.581 33.126-30.292 9.709-22.795 4.519-46.836-11.591-53.697-12.038-5.128-26.762.792-37.488 13.622 0 0-5.954 6.812 5.368 7.424 9.393 1.013 17.286 6.468 22.137 16.334 6.451 13.122 3.389 27.835-6.838 32.863-9.127 4.488-19.731 1.652-26.632-8.798 0 0-2.537-4.113-4.498-.163 0 0-2.07 3.624 0 8.399 2.703 5.706 6.859 10.146 12.287 12.618l-.067-.007c.178 2.25-.791 3.413-.791 3.413s-.832 1.525-3.553 1.749c0 0-9.74.835-16.284 5.127l-.002.017c-26.041 13.966-38.788 51.931-39.32 53.551-1.467 4.46.959 9.263 5.417 10.73.882.29 1.778.428 2.658.428 3.572 0 6.896-2.269 8.073-5.846 2.241-6.811 9.099-22.629 19.255-34.038-17.836 43.527-13.983 111.62-13.983 111.62h22.615c-5.213-37.261 5.538-38.951 5.538-38.951s10.161-4.88 21.502 38.951h25.412s-20.928-48.544-10.692-104.709c4.474 10.522 9.314 25.753 8.809 41.635-.149 4.692 3.533 8.617 8.225 8.766.092.003.184.004.276.004 4.569 0 8.344-3.63 8.49-8.229 1.081-33.966-17.744-64.128-18.547-65.396-3.771-7.124-15.002-10.735-15.002-10.735" fill="#fffffe" mask="url(#b)"/><path d="m145.322 39.828c-19.567-25.546-42.172-37.281-42.172-37.281-9.065-5.271-8.791 1.988-8.791 1.988l.298 10.713-5.516 10.082h.001-.001c-5.212-.642-7.804-.571-7.804-.571-3.914.194-2.253 2.623-2.253 2.623s7.782 9.793 21.587 4.352c8.111 5.225 18.726 13.614 25.764 25.078l9.125-6.664 8.045-2.035s6.842-1.264 1.717-8.285" fill="#2c5595" mask="url(#b)"/></g></svg>